<svg version="1.1" id="Layer_1" xmlns="http://www.w3.org/2000/svg" xmlns:xlink="http://www.w3.org/1999/xlink" x="0px" y="0px"
	width="50px" height="50px" viewBox="0 0 592 592" enable-background="new 0 0 592 592" xml:space="preserve">
<path opacity="1.000000" stroke="none" 
	d="
M162.171509,470.145599 
	C161.390884,471.043457 160.843216,471.671387 160.294586,472.298523 
	C155.269577,478.042664 153.811874,478.170441 148.150055,473.074036 
	C114.201027,442.515320 91.081093,405.225006 78.706841,361.262115 
	C77.488762,356.934570 76.080338,352.655457 75.011696,348.292267 
	C73.545013,342.303955 74.990410,339.850403 81.021652,338.539246 
	C85.236122,337.623108 89.574814,337.277771 93.858482,336.680725 
	C98.262466,336.066925 100.595314,337.881226 101.610733,342.329742 
	C104.838737,356.471405 109.221062,370.260590 115.021461,383.581757 
	C118.087006,390.621979 118.118523,390.696503 124.595558,387.102905 
	C130.131546,384.031372 135.600388,380.838715 141.138000,377.770203 
	C144.470352,375.923676 145.367981,373.582489 143.778198,369.917847 
	C134.524170,348.586365 129.594299,326.195526 129.096451,303.014313 
	C128.601532,279.970001 133.132858,257.676178 141.436600,236.166870 
	C142.096436,234.457687 142.651627,232.690720 143.487717,231.070465 
	C145.353989,227.453751 144.782318,224.940018 140.951569,222.925171 
	C135.057999,219.825363 129.280441,216.478119 123.628876,212.954819 
	C120.059250,210.729446 118.039009,211.481857 116.182472,215.128235 
	C110.858154,225.585587 107.327263,236.668121 104.231796,247.921860 
	C103.172043,251.774643 102.173019,255.644547 101.075371,259.486359 
	C100.074699,262.988770 97.831970,264.909882 94.054657,264.357178 
	C90.107574,263.779663 86.171753,263.101501 82.255791,262.339935 
	C74.510353,260.833588 73.189926,258.530518 75.040527,250.925339 
	C84.251740,213.071121 100.713165,178.892822 126.364288,149.357574 
	C133.364609,141.297226 140.804138,133.651520 148.939758,126.736076 
	C153.653732,122.729095 155.360077,122.959747 159.340347,127.501244 
	C161.974884,130.507233 164.545715,133.579254 166.977875,136.749985 
	C170.524704,141.373901 170.439972,143.520081 166.083618,147.444260 
	C157.518433,155.159744 149.530273,163.404205 142.389496,172.448578 
	C139.708633,175.844116 137.372910,179.511520 134.706528,182.919373 
	C132.958359,185.153687 133.183197,186.829437 135.551376,188.235962 
	C142.424942,192.318329 149.319794,196.364838 156.201538,200.433441 
	C159.508820,202.388794 161.025223,199.944550 162.691452,197.825745 
	C174.608566,182.671692 188.154984,169.237000 204.082855,158.262802 
	C227.191177,142.341400 252.788666,133.136398 280.545532,129.723343 
	C286.461700,128.995865 287.571838,127.932358 287.627350,121.804123 
	C287.680145,115.971817 287.663422,110.138397 287.621429,104.305862 
	C287.571777,97.408730 286.617279,96.749397 279.572083,97.496414 
	C265.784973,98.958267 252.362411,102.193779 238.926041,105.431442 
	C232.215469,107.048424 231.075409,106.317940 228.510025,99.710938 
	C227.304565,96.606354 226.145233,93.479431 225.100296,90.317917 
	C223.193375,84.548485 223.919342,82.957848 229.574631,80.824432 
	C241.948349,76.156548 254.870758,73.813362 267.864258,71.643196 
	C283.756439,68.988892 299.777008,69.083458 315.707336,69.840996 
	C335.209717,70.768394 354.339233,74.589668 372.958191,80.689491 
	C377.381622,82.138649 378.572540,84.969070 377.197815,89.194946 
	C375.858490,93.312004 374.405212,97.396660 373.217377,101.557045 
	C372.005035,105.803169 369.426056,106.992416 365.278442,105.954849 
	C354.465118,103.249794 343.745789,100.096283 332.631012,98.756500 
	C328.501770,98.258751 324.366455,97.811172 320.237305,97.312553 
	C316.628662,96.876785 315.014923,98.357780 315.085876,102.075584 
	C315.222595,109.238831 315.268677,116.408600 315.117188,123.570702 
	C315.031342,127.630074 317.033844,129.201294 320.750214,129.626144 
	C350.333130,133.008194 377.252289,143.341110 401.401978,160.780670 
	C414.857086,170.497177 426.598206,182.043259 437.090912,194.861359 
	C443.012848,202.095703 443.148926,202.227921 451.420258,197.582169 
	C455.923004,195.053116 460.391693,192.460953 464.830475,189.821121 
	C469.835968,186.844223 469.962189,186.051407 466.633911,181.448730 
	C458.704895,170.483765 449.805603,160.357132 440.279144,150.762604 
	C438.286102,148.755325 436.447205,146.593735 434.560852,144.482208 
	C432.583405,142.268753 432.609711,140.021729 434.498505,137.751373 
	C437.374054,134.294861 440.083679,130.685806 443.137939,127.396042 
	C447.205292,123.015045 449.168182,122.952118 453.630920,127.017982 
	C469.718933,141.675308 483.977020,157.915970 495.663940,176.325974 
	C510.728485,200.056702 521.282837,225.615616 526.717041,253.244766 
	C527.986511,259.699097 527.280273,260.897308 520.908325,262.077148 
	C517.143372,262.774292 513.362915,263.387604 509.597626,264.082977 
	C505.288177,264.878906 502.637878,263.454010 501.497131,258.947052 
	C498.018280,245.202682 493.079102,231.927200 488.037628,218.700882 
	C484.678925,209.889328 484.088440,209.737961 476.086426,214.198700 
	C471.284698,216.875412 466.629608,219.834641 461.723785,222.298981 
	C457.668365,224.336166 456.661011,226.680344 458.489624,231.067261 
	C464.981506,246.641678 469.595123,262.750366 471.557129,279.589722 
	C474.956940,308.769714 471.679657,337.045929 460.619568,364.339691 
	C456.354370,374.865143 456.352325,374.876617 466.065002,380.616486 
	C470.511353,383.244141 475.046356,385.727203 479.427338,388.458466 
	C482.528412,390.391785 484.545685,390.008453 486.111023,386.538147 
	C491.943756,373.607117 497.215271,360.493988 499.723145,346.443817 
	C501.424500,336.912140 502.877808,335.857208 512.338440,337.457031 
	C515.289612,337.956116 518.253967,338.379333 521.215393,338.815857 
	C526.796265,339.638458 528.159607,341.422974 527.029297,346.915649 
	C521.125183,375.607086 510.606415,402.399078 494.289307,426.848145 
	C482.370026,444.707703 468.091370,460.437531 452.150940,474.752350 
	C448.739044,477.816254 446.141815,477.596954 443.432159,474.050262 
	C440.802856,470.608704 438.115631,467.200684 435.272095,463.936279 
	C432.031281,460.215851 432.214325,457.110321 435.825775,453.595734 
	C446.325684,443.377472 456.980072,433.306732 465.455353,421.188324 
	C470.324036,414.226837 470.610199,414.393616 463.507538,410.170532 
	C458.639374,407.276001 453.749298,404.416412 448.825867,401.617157 
	C443.124695,398.375641 442.226288,398.517914 438.142151,403.941101 
	C429.784943,415.038422 420.355469,425.070282 409.553772,433.841370 
	C383.783936,454.766602 354.374451,467.095001 321.507050,471.190430 
	C316.912384,471.762909 315.137085,473.750885 315.271057,478.304718 
	C315.452240,484.463318 315.185577,490.634338 315.153564,496.800232 
	C315.117950,503.659027 315.617126,504.190338 322.644043,503.622375 
	C335.311249,502.598511 347.634827,499.847382 359.758759,496.074707 
	C369.680878,492.987183 371.263153,493.856628 374.778137,503.759338 
	C375.390137,505.483459 375.869263,507.254578 376.416351,509.001892 
	C379.157715,517.757446 379.001007,517.793518 370.473297,520.517029 
	C346.307190,528.234863 321.643280,532.176636 296.212189,531.386414 
	C273.411835,530.677856 251.230560,526.659668 229.462646,520.030212 
	C225.319092,518.768311 223.814682,516.113525 225.106781,512.018738 
	C226.559341,507.415466 228.170883,502.862518 229.691376,498.280426 
	C230.783218,494.990051 233.125854,493.913330 236.337875,494.640228 
	C240.555634,495.594757 244.793701,496.515625 248.931458,497.756317 
	C258.860809,500.733643 268.997375,502.550049 279.288635,503.586639 
	C286.481964,504.311188 287.600403,503.328979 287.629608,496.268524 
	C287.655090,490.102692 287.640656,483.936462 287.598663,477.770691 
	C287.572113,473.875702 285.887939,471.779602 281.692749,471.278534 
	C234.512009,465.643341 196.387680,443.754822 166.566544,406.960602 
	C158.897430,397.498260 160.711319,397.942841 149.821411,404.013641 
	C145.601654,406.366058 141.467590,408.872955 137.234451,411.200287 
	C133.629333,413.182343 132.636932,415.237427 135.367630,419.071350 
	C143.630188,430.672028 153.264053,441.000641 163.533279,450.789703 
	C171.516617,458.399689 171.522522,458.394470 164.593719,467.144989 
	C163.869492,468.059570 163.134186,468.965424 162.171509,470.145599 
M434.812164,243.632355 
	C433.872253,241.498642 433.049316,239.304062 431.975464,237.240036 
	C398.676147,173.237671 328.780945,134.733826 249.072052,165.058975 
	C192.181747,186.702835 162.840240,231.623047 156.296448,291.738373 
	C155.739532,296.854523 157.846100,299.418304 162.718185,300.640839 
	C190.561996,307.627655 218.861771,311.909149 247.391129,314.578949 
	C274.948944,317.157898 302.546692,317.285858 330.241821,316.073792 
	C367.508972,314.442841 404.055786,308.547058 440.372070,300.565704 
	C444.496765,299.659180 446.106842,297.611847 445.985321,293.288940 
	C445.506226,276.245331 441.615906,260.009674 434.812164,243.632355 
M318.676849,444.539154 
	C321.568665,443.743073 321.810974,441.465088 321.810577,439.011383 
	C321.805939,408.858154 321.774963,378.704834 321.859253,348.551819 
	C321.869995,344.727295 320.507660,343.119293 316.587677,343.260620 
	C306.437500,343.626526 296.279602,343.927856 286.124420,343.939941 
	C281.578033,343.945374 280.033447,345.698669 280.090454,350.194366 
	C280.316498,368.017426 280.276245,385.843903 280.319397,403.669159 
	C280.347626,415.330566 280.376160,426.992126 280.347046,438.653473 
	C280.338348,442.130219 281.414642,444.608215 285.350983,444.636200 
	C296.172729,444.713165 306.993896,445.366058 318.676849,444.539154 
M343.401428,382.499878 
	C343.399597,399.314789 343.362640,416.129791 343.416382,432.944519 
	C343.433472,438.302307 344.504822,439.159943 349.248535,437.466797 
	C360.578674,433.422821 371.324524,428.158051 381.348541,421.476044 
	C385.105347,418.971710 386.786133,415.462402 386.766754,410.894714 
	C386.671997,388.586029 386.594666,366.276215 386.746002,343.968353 
	C386.777893,339.267548 384.992798,337.653351 380.523102,338.134918 
	C370.274200,339.239136 360.028778,340.457520 349.749969,341.165802 
	C344.982422,341.494263 343.354187,343.535309 343.400696,348.039551 
	C343.515778,359.191803 343.416016,370.346283 343.401428,382.499878 
M216.141357,401.494019 
	C216.413910,421.034332 213.408142,416.239777 231.175797,427.330719 
	C232.022003,427.858917 232.908798,428.326447 233.797729,428.781067 
	C241.306305,432.621277 248.838791,436.403564 256.904602,438.399139 
	C258.894287,436.220184 258.593811,433.982483 258.592651,431.851807 
	C258.577393,404.207001 258.549988,376.562164 258.491455,348.917419 
	C258.479614,343.322083 256.998077,341.797241 251.522202,341.352417 
	C242.069138,340.584534 232.614410,339.835480 223.165436,339.019989 
	C216.020218,338.403381 215.303513,338.912415 215.381409,346.055603 
	C215.579315,364.203156 215.886398,382.349457 216.141357,401.494019 
M408.397980,344.045197 
	C408.544769,357.671448 409.447357,371.292267 408.536865,384.927185 
	C408.312531,388.286682 408.152679,391.742432 410.100067,395.672119 
	C427.795349,375.918610 438.673340,353.866547 443.321289,327.266235 
	C433.483826,329.186523 425.197571,330.769440 416.926514,332.428070 
	C408.249329,334.168152 408.255676,334.199860 408.397980,344.045197 
M193.722458,383.468994 
	C193.725967,369.138031 193.583023,354.804596 193.821136,340.477539 
	C193.893784,336.106445 192.266632,334.057587 188.111465,333.335785 
	C180.899429,332.082977 173.727310,330.601898 166.530472,329.259399 
	C159.953659,328.032562 159.212341,328.811493 160.860260,335.450989 
	C166.159943,356.803772 176.126801,375.869751 189.387543,393.298615 
	C190.245056,394.425659 190.973938,395.927338 193.253220,395.642578 
	C194.208344,392.007996 193.520279,388.195038 193.722458,383.468994 
z"/>
<path opacity="1.000000" stroke="none" 
	d="
M349.549866,210.404160 
	C375.694672,196.990891 406.441681,207.835846 416.242981,234.439774 
	C427.248718,264.312836 405.301727,298.964691 370.148895,296.487671 
	C351.276459,295.157806 337.001038,286.682556 329.477295,268.975555 
	C320.931122,248.862289 328.089569,221.552841 349.549866,210.404160 
z"/>
<path opacity="1.000000" stroke="none" 
	d="
M199.290237,285.745850 
	C185.280777,272.170715 180.337677,255.989838 185.431992,237.649918 
	C190.367371,219.882141 203.056473,209.550003 220.833191,205.374313 
	C239.423813,201.007446 260.447784,210.683884 270.544983,228.162018 
	C280.061310,244.634674 277.568207,267.387451 264.730896,281.222961 
	C246.826355,300.519714 221.028687,302.403778 199.290237,285.745850 
z"/>
<path opacity="1.000000" stroke="none" 
	d="
M293.948975,287.597229 
	C301.905060,284.444092 308.906128,286.107758 312.974335,291.857025 
	C316.744110,297.184540 316.572662,304.600128 312.410065,309.457672 
	C308.710510,313.774811 304.198151,316.139465 298.299957,314.716400 
	C291.951141,313.184692 288.129456,309.147247 287.071564,302.798828 
	C286.023468,296.509247 288.114929,291.344116 293.948975,287.597229 
z"/>
</svg>