<?xml version="1.0" standalone="no"?>
<!DOCTYPE svg PUBLIC "-//W3C//DTD SVG 20010904//EN"
 "http://www.w3.org/TR/2001/REC-SVG-20010904/DTD/svg10.dtd">
<svg version="1.0" xmlns="http://www.w3.org/2000/svg"
 width="50.000000pt" height="50.000000pt" viewBox="0 0 50.000000 50.000000"
 preserveAspectRatio="xMidYMid meet">
<metadata>
Created by potrace 1.16, written by Peter Selinger 2001-2019
</metadata>
<g transform="translate(0.000000,50.000000) scale(0.004883,-0.004883)"
fill="#000000" stroke="none">
<path d="M6592 8845 c-16 -55 -49 -162 -71 -238 -46 -153 -85 -238 -128 -279
-47 -44 -146 -84 -373 -148 -118 -33 -222 -63 -230 -66 -8 -3 30 -19 85 -36
55 -16 161 -47 235 -69 179 -53 241 -82 290 -136 59 -63 67 -85 200 -533 l23
-75 71 241 c40 133 85 267 101 299 57 111 113 140 462 241 112 32 200 61 195
65 -4 3 -105 34 -224 68 -329 92 -376 118 -433 235 -19 39 -64 170 -100 291
-36 121 -67 225 -69 230 -2 6 -17 -35 -34 -90z"/>
<path d="M4726 8092 c-135 -459 -170 -546 -251 -627 -81 -82 -178 -119 -657
-256 -142 -40 -252 -76 -245 -80 6 -4 127 -39 267 -79 471 -134 559 -169 645
-261 78 -83 110 -167 266 -701 29 -98 55 -178 59 -178 4 0 10 10 13 23 7 36
164 558 188 628 49 142 117 242 202 296 67 43 178 81 499 173 346 100 343 99
337 105 -3 2 -146 45 -319 95 -337 97 -391 115 -473 156 -145 74 -208 173
-292 464 -82 283 -147 496 -154 502 -4 5 -42 -112 -85 -260z"/>
<path d="M2548 7658 c-627 -621 -998 -1395 -1099 -2288 -20 -171 -17 -592 5
-770 90 -746 371 -1404 840 -1970 124 -148 381 -403 521 -516 566 -453 1200
-721 1935 -821 194 -26 726 -26 920 0 875 118 1628 485 2225 1082 398 397 699
872 886 1396 21 60 36 109 34 109 -3 0 -34 -24 -68 -53 -804 -681 -1906 -996
-2967 -847 -1059 148 -2008 736 -2602 1610 -375 552 -587 1167 -638 1850 -30
401 18 855 131 1249 17 57 28 105 26 108 -3 2 -70 -60 -149 -139z"/>
<path d="M6976 6297 c-104 -359 -130 -408 -257 -466 -35 -17 -165 -60 -288
-96 -123 -35 -226 -67 -228 -69 -3 -2 4 -7 14 -10 10 -3 113 -33 228 -66 116
-34 239 -74 274 -91 127 -59 155 -109 257 -466 33 -114 62 -197 66 -189 4 7
35 107 69 222 95 323 125 376 246 432 37 17 163 58 278 92 116 33 218 63 228
66 10 3 17 8 14 10 -2 2 -96 31 -208 63 -310 90 -372 117 -423 184 -41 53 -71
132 -136 353 -34 114 -64 213 -68 220 -4 7 -34 -78 -66 -189z"/>
<path d="M3800 5805 c-130 -40 -208 -186 -166 -312 77 -231 412 -231 481 1 19
63 19 80 -1 147 -21 72 -91 141 -165 163 -63 19 -89 19 -149 1z"/>
<path d="M4930 4307 c-93 -62 -97 -194 -8 -260 62 -46 174 -28 220 36 30 41
35 121 11 167 -40 78 -151 106 -223 57z"/>
</g>
</svg>
