<?xml version="1.0" standalone="no"?>
<!DOCTYPE svg PUBLIC "-//W3C//DTD SVG 20010904//EN"
 "http://www.w3.org/TR/2001/REC-SVG-20010904/DTD/svg10.dtd">
<svg version="1.0" xmlns="http://www.w3.org/2000/svg"
 width="50.000000pt" height="50.000000pt" viewBox="0 0 50.000000 50.000000"
 preserveAspectRatio="xMidYMid meet">
<metadata>
Created by potrace 1.16, written by Peter Selinger 2001-2019
</metadata>
<g transform="translate(0.000000,50.000000) scale(0.005556,-0.005556)"
fill="#000000" stroke="none">
<path d="M4305 7387 c-152 -40 -363 -186 -462 -321 -108 -146 -110 -348 -4
-468 36 -41 39 -70 11 -116 -39 -64 -120 -91 -220 -72 -42 8 -62 18 -87 44
-65 70 -63 139 8 273 39 73 41 82 37 143 -6 78 -30 130 -89 188 -151 149 -446
178 -719 70 -97 -38 -106 -48 -44 -48 175 -1 365 -113 449 -265 89 -163 67
-355 -54 -475 -60 -60 -106 -80 -183 -80 -135 0 -308 120 -376 261 -32 65 -58
184 -49 219 9 34 -15 22 -73 -37 -98 -103 -150 -231 -150 -373 0 -199 95 -337
284 -414 l58 -24 -31 -35 c-43 -49 -97 -141 -116 -197 -8 -25 -26 -110 -39
-187 -35 -210 -87 -308 -192 -359 -45 -22 -63 -26 -100 -20 -104 14 -196 94
-255 220 -41 87 -44 122 -25 243 28 175 18 286 -33 352 l-18 23 -7 -71 c-10
-112 -42 -193 -125 -315 -96 -144 -130 -218 -143 -320 -9 -72 -8 -91 11 -171
38 -159 125 -277 260 -352 92 -52 177 -73 291 -73 161 0 282 43 369 131 68 70
95 126 135 276 66 246 105 336 225 514 271 404 696 690 1171 789 482 99 992 3
1403 -266 175 -114 270 -201 405 -368 72 -89 104 -106 191 -106 50 0 72 7 139
41 204 104 370 288 406 449 43 186 0 350 -157 608 -60 97 -90 174 -102 255 -7
47 -8 48 -27 30 -33 -30 -40 -61 -47 -213 -6 -127 -10 -152 -34 -203 -37 -81
-119 -157 -225 -210 l-85 -42 -121 0 c-115 0 -124 1 -189 32 l-68 32 47 58
c26 32 63 92 83 133 34 70 36 81 36 170 -1 75 -6 107 -24 153 -24 62 -89 149
-131 176 -23 15 -24 15 -16 -4 18 -42 19 -169 2 -235 -67 -263 -253 -374 -520
-311 -109 26 -176 61 -227 120 -69 78 -73 163 -11 232 15 16 83 58 152 92 113
56 128 67 158 112 30 44 33 56 30 102 -3 36 -13 62 -32 87 -33 44 -46 45 -46
7 0 -17 -10 -42 -23 -56 -46 -54 -147 -30 -279 66 -109 79 -183 110 -276 115
-44 2 -98 -2 -127 -9z"/>
<path d="M4165 6259 c-99 -13 -296 -63 -390 -99 -894 -344 -1354 -1326 -1044
-2228 154 -446 484 -813 911 -1017 436 -207 924 -227 1378 -58 536 200 948
661 1089 1221 60 237 67 550 17 788 -146 695 -691 1233 -1392 1375 -123 25
-443 35 -569 18z"/>
<path d="M6871 5609 c-132 -20 -224 -73 -414 -239 -119 -104 -183 -127 -304
-106 l-43 8 24 -54 c38 -87 83 -235 106 -353 91 -470 -7 -984 -261 -1370 -76
-116 -100 -174 -106 -258 -7 -89 14 -180 60 -256 44 -73 164 -184 242 -222
151 -74 411 -53 585 48 86 50 214 180 268 272 40 68 104 212 97 219 -2 2 -32
-20 -67 -48 -122 -99 -246 -137 -386 -120 -147 19 -240 74 -304 180 -96 161
-90 281 21 390 61 60 144 108 231 135 l55 17 70 -35 c115 -57 170 -71 270 -71
106 0 149 16 237 87 128 105 199 266 191 435 -3 45 -8 82 -11 82 -4 -1 -25
-23 -47 -51 -106 -131 -258 -209 -407 -209 -87 0 -141 24 -214 98 -106 107
-158 255 -157 447 1 203 64 371 183 494 84 85 161 123 266 129 212 12 325 -96
295 -281 -6 -38 -18 -84 -26 -103 -18 -44 -8 -43 37 4 61 62 77 111 79 242 2
133 -18 206 -78 298 -94 140 -297 219 -492 191z"/>
<path d="M1898 4521 c-75 -24 -118 -52 -172 -112 -40 -45 -100 -148 -91 -158
2 -2 16 6 32 17 51 36 157 74 220 80 78 6 135 -14 188 -65 37 -36 91 -136 97
-181 3 -22 -1 -23 -65 -27 -148 -9 -279 -81 -355 -195 -60 -89 -75 -158 -52
-240 12 -43 65 -130 80 -130 5 0 10 17 10 38 1 82 70 170 152 192 86 24 179
-9 246 -85 54 -61 72 -118 72 -224 0 -74 -4 -95 -29 -146 -17 -36 -48 -79 -80
-108 -59 -55 -175 -114 -242 -123 -67 -9 -146 17 -203 67 -26 23 -49 40 -51
37 -8 -7 24 -110 51 -167 44 -90 159 -198 273 -254 75 -38 103 -47 145 -47 61
0 87 16 181 113 72 74 117 98 199 104 144 12 342 -103 396 -229 46 -107 10
-265 -77 -337 -105 -86 -254 -80 -380 16 l-36 28 6 -64 c16 -179 173 -329 437
-418 288 -96 518 50 564 360 9 57 25 115 39 144 79 154 258 206 425 122 79
-40 123 -97 143 -184 11 -51 10 -62 -15 -143 -66 -216 -50 -354 55 -462 78
-81 253 -140 412 -140 142 0 308 62 412 154 l50 43 -100 5 c-120 6 -173 26
-219 80 -43 50 -60 117 -54 213 6 94 41 168 109 229 177 159 474 103 544 -103
36 -106 9 -224 -76 -338 l-50 -65 63 7 c232 26 385 170 405 381 10 106 -47
245 -129 317 -19 16 -19 18 -4 42 9 14 35 37 58 53 36 23 51 27 117 27 63 0
87 -5 139 -29 153 -71 203 -215 123 -362 l-30 -56 26 7 c37 9 108 60 136 98
52 69 60 171 22 252 -11 22 -76 98 -145 170 -171 176 -175 184 -175 312 0 57
-1 103 -3 103 -1 0 -37 -30 -80 -66 -556 -476 -1366 -578 -2027 -255 -533 261
-904 741 -1021 1321 -14 69 -35 145 -47 169 -45 90 -183 184 -318 216 -88 20
-229 19 -301 -4z"/>
</g>
</svg>
